# xmcd CD database file
#
# Track frame offsets:
#	150
#	43013
#	85125
#	107041
#	156166
#	194491
#	240935
#	292385
#
# Disc length: 4369 seconds
#
# Revision: 0
# Processed by: cddbd v1.5.2PL0 Copyright (c) Steve Scherf et al.
# Submitted via: CDex 1.60beta1-cs1
#
DISCID=6c110f08
DTITLE=Fumio Karashima - E J Blues
DYEAR=1900
DGENRE=Jazz
TTITLE0=E J Blues
TTITLE1=Blood Count
TTITLE2=Hangin' Out
TTITLE3=Waltz for Monk
TTITLE4=Be Happy Please
TTITLE5=In a Sentimental Mood
TTITLE6=One for Him
TTITLE7=Lush Life
EXTD=
EXTT0=
EXTT1=
EXTT2=
EXTT3=
EXTT4=
EXTT5=
EXTT6=
EXTT7=
PLAYORDER=
